<mxfile host="app.diagrams.net" modified="2024-02-12T09:19:42.855Z" agent="Mozilla/5.0 (Windows NT 10.0; Win64; x64) AppleWebKit/537.36 (KHTML, like Gecko) Chrome/120.0.0.0 Safari/537.36" etag="UljuwLyXAyHWyrll5Rud" version="23.1.2" type="gitlab">
  <diagram name="Page-1" id="03018318-947c-dd8e-b7a3-06fadd420f32">
    <mxGraphModel dx="3908" dy="1834" grid="1" gridSize="10" guides="1" tooltips="1" connect="1" arrows="1" fold="1" page="1" pageScale="1" pageWidth="1100" pageHeight="850" background="none" math="0" shadow="0">
      <root>
        <mxCell id="0" />
        <mxCell id="1" parent="0" />
        <mxCell id="677b7b8949515195-1" value="" style="whiteSpace=wrap;html=1;rounded=0;shadow=0;labelBackgroundColor=none;strokeColor=#000000;strokeWidth=1;fillColor=none;fontFamily=Verdana;fontSize=12;fontColor=#000000;align=center;comic=1;" parent="1" vertex="1">
          <mxGeometry x="-1080" y="20" width="1060" height="810" as="geometry" />
        </mxCell>
        <mxCell id="677b7b8949515195-9" value="" style="line;strokeWidth=1;html=1;rounded=0;shadow=0;labelBackgroundColor=none;fillColor=none;fontFamily=Verdana;fontSize=14;fontColor=#000000;align=center;comic=1;" parent="1" vertex="1">
          <mxGeometry x="-1080" y="100" width="1060" height="10" as="geometry" />
        </mxCell>
        <mxCell id="XIFiytp4miUg_fjSW4SD-3" value="History" style="text;html=1;strokeColor=none;fillColor=none;align=center;verticalAlign=middle;whiteSpace=wrap;rounded=0;" parent="1" vertex="1">
          <mxGeometry x="-655" y="50" width="60" height="30" as="geometry" />
        </mxCell>
        <mxCell id="XIFiytp4miUg_fjSW4SD-4" value="Docs" style="text;html=1;strokeColor=none;fillColor=none;align=center;verticalAlign=middle;whiteSpace=wrap;rounded=0;" parent="1" vertex="1">
          <mxGeometry x="-595" y="50" width="60" height="30" as="geometry" />
        </mxCell>
        <mxCell id="XIFiytp4miUg_fjSW4SD-5" value="Image Upload" style="text;html=1;strokeColor=none;fillColor=none;align=center;verticalAlign=middle;whiteSpace=wrap;rounded=0;" parent="1" vertex="1">
          <mxGeometry x="-535" y="50" width="90" height="30" as="geometry" />
        </mxCell>
        <mxCell id="XIFiytp4miUg_fjSW4SD-8" value="" style="rounded=0;whiteSpace=wrap;html=1;fillStyle=hatch;" parent="1" vertex="1">
          <mxGeometry x="-695" y="255" width="290" height="260" as="geometry" />
        </mxCell>
        <mxCell id="XIFiytp4miUg_fjSW4SD-9" value="Sign In Form" style="text;html=1;strokeColor=none;fillColor=none;align=center;verticalAlign=middle;whiteSpace=wrap;rounded=0;" parent="1" vertex="1">
          <mxGeometry x="-685" y="270" width="100" height="30" as="geometry" />
        </mxCell>
        <mxCell id="XIFiytp4miUg_fjSW4SD-10" value="" style="rounded=0;whiteSpace=wrap;html=1;fillStyle=dashed;fillColor=none;" parent="1" vertex="1">
          <mxGeometry x="-665" y="340" width="230" height="30" as="geometry" />
        </mxCell>
        <mxCell id="XIFiytp4miUg_fjSW4SD-11" value="Username" style="text;html=1;strokeColor=none;fillColor=none;align=center;verticalAlign=middle;whiteSpace=wrap;rounded=0;" parent="1" vertex="1">
          <mxGeometry x="-665" y="310" width="60" height="30" as="geometry" />
        </mxCell>
        <mxCell id="XIFiytp4miUg_fjSW4SD-12" value="" style="rounded=0;whiteSpace=wrap;html=1;fillStyle=dashed;fillColor=none;" parent="1" vertex="1">
          <mxGeometry x="-665" y="400" width="230" height="30" as="geometry" />
        </mxCell>
        <mxCell id="XIFiytp4miUg_fjSW4SD-13" value="Password" style="text;html=1;strokeColor=none;fillColor=none;align=center;verticalAlign=middle;whiteSpace=wrap;rounded=0;" parent="1" vertex="1">
          <mxGeometry x="-665" y="370" width="60" height="30" as="geometry" />
        </mxCell>
        <mxCell id="XIFiytp4miUg_fjSW4SD-15" value="Sign In" style="rounded=1;whiteSpace=wrap;html=1;" parent="1" vertex="1">
          <mxGeometry x="-585" y="460" width="70" height="30" as="geometry" />
        </mxCell>
      </root>
    </mxGraphModel>
  </diagram>
</mxfile>
